<svg width="1440" height="634" viewBox="0 0 1440 634" fill="none" xmlns="http://www.w3.org/2000/svg">
<path d="M1440 630V184.855C1440 184.855 1214 197.855 1017.5 158.855C821 119.855 634 50.3555 420 22.8555C206 -4.64453 0 0.355469 0 0.355469V630H1440Z" fill="url(#paint0_linear_0_3)"/>
<path d="M1440 634V188.855C1440 188.855 1214 201.855 1017.5 162.855C821 123.855 634 54.3555 420 26.8555C206 -0.644531 0 4.35547 0 4.35547V634H1440Z" fill="url(#paint1_linear_0_3)"/>
<mask id="mask0_0_3" style="mask-type:luminance" maskUnits="userSpaceOnUse" x="0" y="4" width="1440" height="630">
<path d="M1440 634V188.855C1440 188.855 1214 201.855 1017.5 162.855C821 123.855 634 54.3555 420 26.8555C206 -0.644531 0 4.35547 0 4.35547V634H1440Z" fill="white"/>
</mask>
<g mask="url(#mask0_0_3)">
<circle opacity="0.05" cx="262" cy="262" r="262" transform="matrix(1 0 0 -1 1060 368.855)" fill="white"/>
<circle opacity="0.02" cx="262" cy="262" r="262" transform="matrix(1 0 0 -1 -6 1035.86)" fill="white"/>
</g>
<defs>
<linearGradient id="paint0_linear_0_3" x1="-644.712" y1="220.442" x2="-118.041" y2="-848.811" gradientUnits="userSpaceOnUse">
<stop stop-color="#52B4DA"/>
<stop offset="1" stop-color="#377999"/>
</linearGradient>
<linearGradient id="paint1_linear_0_3" x1="-644.712" y1="224.442" x2="-118.041" y2="-844.811" gradientUnits="userSpaceOnUse">
<stop stop-color="#336DA6"/>
<stop offset="1" stop-color="#1E3E85"/>
</linearGradient>
</defs>
</svg>
