<svg width="24" height="28" viewBox="0 0 24 28" fill="none" xmlns="http://www.w3.org/2000/svg">
<path d="M6.74236 27.048L7.23236 23.968H6.14036H0.988358L4.57236 1.20403C4.58192 1.1335 4.61674 1.06883 4.67036 1.02203C4.72664 0.978537 4.79526 0.954027 4.86636 0.952026H13.5604C16.4584 0.952026 18.4464 1.55403 19.4964 2.74403C19.961 3.24317 20.2847 3.85675 20.4344 4.52203C20.5976 5.33053 20.5976 6.16352 20.4344 6.97203V7.67203L20.9244 7.95203C21.2974 8.13795 21.634 8.38926 21.9184 8.69403C22.3463 9.21062 22.6225 9.8358 22.7164 10.5C22.8212 11.3683 22.7834 12.2479 22.6044 13.104C22.4197 14.1439 22.0549 15.1436 21.5264 16.058C21.0992 16.7911 20.5219 17.4257 19.8324 17.92C19.1383 18.3933 18.3656 18.7394 17.5504 18.942C16.6352 19.1729 15.6942 19.2858 14.7504 19.278H14.0644C13.5836 19.2781 13.118 19.4465 12.7484 19.754C12.3768 20.0671 12.1328 20.5053 12.0624 20.986V21.266L11.2084 26.698V26.908C11.2185 26.9447 11.2185 26.9834 11.2084 27.02H11.1244L6.74236 27.048Z" fill="#253D80"/>
<path d="M21.3863 7.11206L21.3023 7.63006C20.1543 13.5101 16.2203 15.5541 11.2083 15.5541H8.66035C8.04729 15.5533 7.52478 15.9986 7.42835 16.6041L6.12635 24.8921L5.74835 27.2441C5.71997 27.4324 5.77459 27.6238 5.8981 27.7688C6.02161 27.9138 6.20189 27.9981 6.39235 28.0001H10.9283C11.4662 27.9996 11.9236 27.6075 12.0063 27.0761V26.8521L12.8603 21.4341V21.1401C12.9367 20.6108 13.3896 20.2175 13.9243 20.2161H14.6663C19.0483 20.2161 22.4923 18.4381 23.4863 13.2161C24.0242 11.4313 23.6924 9.49749 22.5903 7.99406C22.2406 7.6354 21.8338 7.33734 21.3863 7.11206V7.11206Z" fill="#189BD7"/>
<path d="M20.1824 6.636L19.6504 6.496L19.0624 6.384C18.321 6.27314 17.5719 6.22164 16.8224 6.23H9.99035C9.83076 6.22562 9.67242 6.25921 9.52835 6.328C9.20372 6.47999 8.97743 6.78521 8.92635 7.14L7.52635 16.338V16.604C7.62279 15.9986 8.1453 15.5533 8.75835 15.554H11.3064C16.3184 15.554 20.2524 13.51 21.4004 7.63L21.4844 7.112C21.1828 6.95617 20.8691 6.82507 20.5464 6.72L20.1824 6.636Z" fill="#242E65"/>
<path d="M8.92635 7.14C8.97743 6.78521 9.20372 6.47998 9.52835 6.328C9.67242 6.25921 9.83076 6.22562 9.99035 6.23H16.8223C17.5719 6.22164 18.321 6.27314 19.0623 6.384L19.6504 6.496L20.1824 6.636L20.4483 6.72C20.7711 6.82507 21.0848 6.95617 21.3864 7.112C21.8414 5.36288 21.4243 3.50165 20.2663 2.114C18.8664 0.630001 16.5704 9.30878e-07 13.5744 9.30878e-07H4.86635C4.25329 -0.000743074 3.73079 0.444577 3.63435 1.05L0.00835057 24.024C-0.0241106 24.2407 0.0390047 24.4607 0.181353 24.6273C0.323702 24.7938 0.531285 24.8904 0.750351 24.892H6.12635L7.52635 16.338L8.92635 7.14Z" fill="#253D80"/>
</svg>
